HIERARCHY
ROOT Hips
{
    OFFSET 0.000000 0.000000 0.000000
    CHANNELS 6 Xposition Yposition Zposition Zrotation Xrotation Yrotation
    JOINT Spine
    {
        OFFSET -0.000000 0.080487 -0.000000
        CHANNELS 3 Zrotation Xrotation Yrotation
        JOINT Spine1
        {
            OFFSET -0.000000 0.226501 -0.000000
            CHANNELS 3 Zrotation Xrotation Yrotation
            JOINT Neck
            {
                OFFSET 0.000000 0.241634 0.000000
                CHANNELS 3 Zrotation Xrotation Yrotation
                JOINT Head
                {
                    OFFSET -0.000000 0.146889 0.019347
                    CHANNELS 3 Zrotation Xrotation Yrotation
                    End Site
                    {
                        OFFSET 0.000000 0.193473 0.000000
                    }
                }
            }
            JOINT LeftShoulder
            {
                OFFSET 0.038662 0.198558 -0.002825
                CHANNELS 3 Zrotation Xrotation Yrotation
                JOINT LeftArm
                {
                    OFFSET 0.115149 -0.000000 -0.000000
                    CHANNELS 3 Zrotation Xrotation Yrotation
                    JOINT LeftForeArm
                    {
                        OFFSET 0.287323 -0.000000 -0.000000
                        CHANNELS 3 Zrotation Xrotation Yrotation
                        JOINT LeftHand
                        {
                            OFFSET 0.292989 -0.000000 -0.000000
                            CHANNELS 3 Zrotation Xrotation Yrotation
                            JOINT LeftHandThumb1
                            {
                                OFFSET 0.020218 -0.022975 0.032165
                                CHANNELS 3 Zrotation Xrotation Yrotation
                                JOINT LeftHandThumb2
                                {
                                    OFFSET 0.030536 0.000000 -0.000000
                                    CHANNELS 3 Zrotation Xrotation Yrotation
                                    JOINT LeftHandThumb3
                                    {
                                        OFFSET 0.026100 0.000000 -0.000000
                                        CHANNELS 3 Zrotation Xrotation Yrotation
                                        End Site
                                        {
                                            OFFSET 0.025248 0.000000 0.000000
                                        }
                                    }
                                }
                            }
                            JOINT LeftHandIndex1
                            {
                                OFFSET 0.082710 -0.000000 0.032165
                                CHANNELS 3 Zrotation Xrotation Yrotation
                                JOINT LeftHandIndex2
                                {
                                    OFFSET 0.045950 0.000000 -0.000000
                                    CHANNELS 3 Zrotation Xrotation Yrotation
                                    JOINT LeftHandIndex3
                                    {
                                        OFFSET 0.022975 0.000000 -0.000000
                                        CHANNELS 3 Zrotation Xrotation Yrotation
                                        End Site
                                        {
                                            OFFSET 0.022225 0.000000 0.000000
                                        }
                                    }
                                }
                            }
                            JOINT LeftHandMiddle1
                            {
                                OFFSET 0.082710 0.000000 0.010660
                                CHANNELS 3 Zrotation Xrotation Yrotation
                                JOINT LeftHandMiddle2
                                {
                                    OFFSET 0.050545 0.000000 -0.000000
                                    CHANNELS 3 Zrotation Xrotation Yrotation
                                    JOINT LeftHandMiddle3
                                    {
                                        OFFSET 0.027570 0.000000 -0.000000
                                        CHANNELS 3 Zrotation Xrotation Yrotation
                                        End Site
                                        {
                                            OFFSET 0.026670 0.000000 0.000000
                                        }
                                    }
                                }
                            }
                            JOINT LeftHandRing1
                            {
                                OFFSET 0.078115 -0.000000 -0.010660
                                CHANNELS 3 Zrotation Xrotation Yrotation
                                JOINT LeftHandRing2
                                {
                                    OFFSET 0.045950 0.000000 -0.000000
                                    CHANNELS 3 Zrotation Xrotation Yrotation
                                    JOINT LeftHandRing3
                                    {
                                        OFFSET 0.022975 0.000000 0.000000
                                        CHANNELS 3 Zrotation Xrotation Yrotation
                                        End Site
                                        {
                                            OFFSET 0.022225 0.000000 0.000000
                                        }
                                    }
                                }
                            }
                            JOINT LeftHandPinky1
                            {
                                OFFSET 0.073520 0.000000 -0.032165
                                CHANNELS 3 Zrotation Xrotation Yrotation
                                JOINT LeftHandPinky2
                                {
                                    OFFSET 0.036760 -0.000000 -0.000000
                                    CHANNELS 3 Zrotation Xrotation Yrotation
                                    JOINT LeftHandPinky3
                                    {
                                        OFFSET 0.018380 -0.000000 -0.000000
                                        CHANNELS 3 Zrotation Xrotation Yrotation
                                        End Site
                                        {
                                            OFFSET 0.017780 0.000000 0.000000
                                        }
                                    }
                                }
                            }
                        }
                    }
                }
            }
            JOINT RightShoulder
            {
                OFFSET -0.038662 0.198558 -0.002825
                CHANNELS 3 Zrotation Xrotation Yrotation
                JOINT RightArm
                {
                    OFFSET -0.115149 -0.000000 0.000000
                    CHANNELS 3 Zrotation Xrotation Yrotation
                    JOINT RightForeArm
                    {
                        OFFSET -0.287323 -0.000000 0.000000
                        CHANNELS 3 Zrotation Xrotation Yrotation
                        JOINT RightHand
                        {
                            OFFSET -0.292989 0.000000 0.000000
                            CHANNELS 3 Zrotation Xrotation Yrotation
                            JOINT RightHandThumb1
                            {
                                OFFSET -0.020218 -0.022975 0.032165
                                CHANNELS 3 Zrotation Xrotation Yrotation
                                JOINT RightHandThumb2
                                {
                                    OFFSET -0.030536 0.000000 -0.000000
                                    CHANNELS 3 Zrotation Xrotation Yrotation
                                    JOINT RightHandThumb3
                                    {
                                        OFFSET -0.026100 -0.000000 0.000000
                                        CHANNELS 3 Zrotation Xrotation Yrotation
                                        End Site
                                        {
                                            OFFSET -0.025248 0.000000 0.000000
                                        }
                                    }
                                }
                            }
                            JOINT RightHandIndex1
                            {
                                OFFSET -0.082710 -0.000000 0.032165
                                CHANNELS 3 Zrotation Xrotation Yrotation
                                JOINT RightHandIndex2
                                {
                                    OFFSET -0.045950 0.000000 0.000000
                                    CHANNELS 3 Zrotation Xrotation Yrotation
                                    JOINT RightHandIndex3
                                    {
                                        OFFSET -0.022975 -0.000000 -0.000000
                                        CHANNELS 3 Zrotation Xrotation Yrotation
                                        End Site
                                        {
                                            OFFSET -0.022225 0.000000 0.000000
                                        }
                                    }
                                }
                            }
                            JOINT RightHandMiddle1
                            {
                                OFFSET -0.082710 -0.000000 0.010660
                                CHANNELS 3 Zrotation Xrotation Yrotation
                                JOINT RightHandMiddle2
                                {
                                    OFFSET -0.050545 0.000000 0.000000
                                    CHANNELS 3 Zrotation Xrotation Yrotation
                                    JOINT RightHandMiddle3
                                    {
                                        OFFSET -0.027570 -0.000000 -0.000000
                                        CHANNELS 3 Zrotation Xrotation Yrotation
                                        End Site
                                        {
                                            OFFSET -0.026670 0.000000 0.000000
                                        }
                                    }
                                }
                            }
                            JOINT RightHandRing1
                            {
                                OFFSET -0.078115 -0.000000 -0.010660
                                CHANNELS 3 Zrotation Xrotation Yrotation
                                JOINT RightHandRing2
                                {
                                    OFFSET -0.045950 -0.000000 -0.000000
                                    CHANNELS 3 Zrotation Xrotation Yrotation
                                    JOINT RightHandRing3
                                    {
                                        OFFSET -0.022975 -0.000000 -0.000000
                                        CHANNELS 3 Zrotation Xrotation Yrotation
                                        End Site
                                        {
                                            OFFSET -0.022225 0.000000 0.000000
                                        }
                                    }
                                }
                            }
                            JOINT RightHandPinky1
                            {
                                OFFSET -0.073520 0.000000 -0.032165
                                CHANNELS 3 Zrotation Xrotation Yrotation
                                JOINT RightHandPinky2
                                {
                                    OFFSET -0.036760 0.000000 0.000000
                                    CHANNELS 3 Zrotation Xrotation Yrotation
                                    JOINT RightHandPinky3
                                    {
                                        OFFSET -0.018380 -0.000000 -0.000000
                                        CHANNELS 3 Zrotation Xrotation Yrotation
                                        End Site
                                        {
                                            OFFSET -0.017780 0.000000 0.000000
                                        }
                                    }
                                }
                            }
                        }
                    }
                }
            }
        }
    }
    JOINT LeftUpLeg
    {
        OFFSET 0.096737 -0.000000 -0.000000
        CHANNELS 3 Zrotation Xrotation Yrotation
        JOINT LeftLeg
        {
            OFFSET -0.000000 -0.425128 0.000000
            CHANNELS 3 Zrotation Xrotation Yrotation
            JOINT LeftFoot
            {
                OFFSET -0.000000 -0.463118 0.000000
                CHANNELS 3 Zrotation Xrotation Yrotation
                JOINT LeftToeBase
                {
                    OFFSET 0.000000 -0.062879 0.145105
                    CHANNELS 3 Zrotation Xrotation Yrotation
                    End Site
                    {
                        OFFSET 0.000000 0.000000 0.038695
                    }
                }
            }
        }
    }
    JOINT RightUpLeg
    {
        OFFSET -0.096737 0.000000 0.000000
        CHANNELS 3 Zrotation Xrotation Yrotation
        JOINT RightLeg
        {
            OFFSET -0.000000 -0.425128 -0.000000
            CHANNELS 3 Zrotation Xrotation Yrotation
            JOINT RightFoot
            {
                OFFSET 0.000000 -0.463118 -0.000000
                CHANNELS 3 Zrotation Xrotation Yrotation
                JOINT RightToeBase
                {
                    OFFSET 0.000000 -0.062879 0.145105
                    CHANNELS 3 Zrotation Xrotation Yrotation
                    End Site
                    {
                        OFFSET 0.000000 0.000000 0.038695
                    }
                }
            }
        }
    }
}
MOTION
Frames:    4
Frame Time:    0.016667
0.192127    0.943189    -0.072205    3.397752    -0.530181    -88.686020    0.047290    -12.604035    0.216719    0.411558    9.962696    0.137102    5.825841    -7.478015    1.666714    0.968275    -7.107617    1.022247    10.494186    -1.602589    -3.768610    -20.110073    -1.766426    -0.673588    -0.153345    -13.354923    -0.663845    9.779382    -2.901878    6.321315    27.936018    36.878319    -44.072906    -22.867783    -4.684808    22.867792    -0.000000    0.000000    -0.000000    -1.578988    17.993561    -0.816825    -1.501746    -0.000000    0.000006    -1.501746    0.000000    -0.000005    -1.501744    0.000000    -0.652351    -1.501747    0.000001    -0.000010    -1.501745    -0.000001    0.000007    -1.501743    0.000001    0.434916    -1.501749    -0.000002    -0.000016    -1.501744    -0.000000    0.000008    -1.578991    -17.993565    0.381934    -1.501744    -0.000002    -0.000000    -1.501745    0.000002    0.000004    -10.247120    -0.462846    -0.096062    19.464256    -6.019775    5.600802    1.235674    -26.349443    2.782270    -19.737728    -4.220441    -4.687787    -27.936016    36.878323    44.072910    22.867783    -4.684808    -22.867783    -0.000000    0.000000    -0.000000    1.578994    17.993561    0.816837    1.501747    -0.000001    -0.000004    1.501746    -0.000000    -0.000000    1.501746    -0.000002    0.652359    1.501747    0.000002    -0.000000    1.501751    0.000002    0.000003    1.501746    -0.000003    -0.434903    1.501751    0.000003    0.000006    1.501746    -0.000000    -0.000000    1.578992    -17.993561    -0.381927    1.501748    -0.000002    -0.000004    1.501744    0.000003    0.000002    0.903728    0.838492    4.400733    -0.000001    0.227127    0.000003    0.386683    -4.747549    5.040582    -0.000000    1.463827    0.000000    -1.811655    -3.801275    -6.095612    0.000001    10.489462    -0.000006    4.034770    -11.014549    -1.313144    0.000000    0.517432    -0.000002    
0.192214    0.943185    -0.072175    3.439831    -0.525379    -88.686913    0.047392    -12.643662    0.216513    0.415915    9.962074    0.136135    5.820884    -7.486484    1.663416    0.969692    -7.088526    1.018689    10.503090    -1.593933    -3.789619    -20.117188    -1.747491    -0.681430    -0.160576    -13.388116    -0.693449    10.003558    -2.877576    6.312881    27.900110    36.907932    -44.133801    -22.867786    -4.684812    22.867792    -0.000000    0.000000    -0.000000    -1.645251    17.993011    -0.858214    -1.564768    0.000000    -0.000002    -1.564768    -0.000000    0.000002    -1.564767    -0.000000    -0.683271    -1.564767    -0.000001    -0.000002    -1.564771    0.000000    -0.000008    -1.564768    -0.000000    0.455529    -1.564769    -0.000001    -0.000002    -1.564767    0.000002    0.000002    -1.645252    -17.993015    0.402698    -1.564770    -0.000003    -0.000000    -1.564770    0.000003    0.000000    -10.256277    -0.475964    -0.078968    19.467493    -5.965455    5.582366    1.240917    -26.492939    2.780030    -19.665703    -4.152142    -4.627181    -27.900106    36.907932    44.133797    22.867792    -4.684813    -22.867790    -0.000000    0.000000    -0.000000    1.645250    17.993008    0.858212    1.564769    0.000002    0.000002    1.564767    -0.000002    -0.000005    1.564767    -0.000004    0.683279    1.564772    0.000005    0.000004    1.564765    -0.000004    -0.000008    1.564767    -0.000003    -0.455528    1.564772    0.000004    0.000008    1.564766    -0.000003    -0.000006    1.645249    -17.993017    -0.402696    1.564766    -0.000003    0.000005    1.564768    0.000002    0.000001    0.907051    0.779694    4.404836    -0.000000    0.249384    -0.000000    0.384938    -4.756087    5.035386    -0.000000    1.465973    0.000005    -1.809157    -3.859015    -6.086711    -0.000002    10.507633    0.000008    4.028701    -11.017912    -1.324555    0.000000    0.520705    -0.000004    
0.192270    0.943174    -0.072128    3.478309    -0.523595    -88.690498    0.047423    -12.684537    0.215969    0.421325    9.963299    0.134640    5.812332    -7.489997    1.656687    0.959192    -7.081900    1.011395    10.509923    -1.580242    -3.805559    -20.133877    -1.710742    -0.687307    -0.169086    -13.386662    -0.730285    10.129173    -2.841829    6.278314    27.864418    36.937511    -44.194481    -22.867779    -4.684805    22.867777    -0.000000    0.000000    -0.000000    -1.710523    17.992449    -0.899662    -1.626852    0.000000    -0.000001    -1.626851    -0.000001    0.000006    -1.626850    -0.000000    -0.714081    -1.626852    0.000000    -0.000005    -1.626850    -0.000000    0.000001    -1.626851    -0.000001    0.476055    -1.626850    0.000001    0.000008    -1.626850    0.000000    -0.000006    -1.710521    -17.992449    0.423599    -1.626849    -0.000000    0.000006    -1.626847    0.000005    0.000002    -10.259589    -0.471124    -0.058476    19.461353    -5.889166    5.570579    1.241681    -26.558872    2.775350    -19.630234    -4.054632    -4.569648    -27.864424    36.937511    44.194492    22.867786    -4.684812    -22.867790    -0.000000    0.000000    -0.000000    1.710524    17.992456    0.899660    1.626853    -0.000001    -0.000000    1.626852    0.000001    -0.000000    1.626848    0.000003    0.714081    1.626858    0.000002    0.000005    1.626851    -0.000000    -0.000002    1.626847    0.000002    -0.476067    1.626857    0.000007    0.000008    1.626851    -0.000002    0.000002    1.710527    -17.992441    -0.423604    1.626850    -0.000003    -0.000003    1.626849    -0.000002    -0.000005    0.905518    0.728520    4.411944    0.000000    0.268279    -0.000004    0.380042    -4.768419    5.034172    0.000000    1.469101    -0.000003    -1.810417    -3.910975    -6.075713    -0.000001    10.525363    0.000007    4.024460    -11.015660    -1.336211    -0.000000    0.531828    0.000011    
0.192305    0.943162    -0.072075    3.514185    -0.523929    -88.697151    0.047248    -12.722372    0.214538    0.427812    9.963396    0.132100    5.799030    -7.493770    1.647945    0.941261    -7.087482    1.001914    10.520603    -1.568707    -3.819851    -20.151379    -1.664828    -0.688094    -0.172273    -13.341133    -0.746546    10.180050    -2.777325    6.232282    27.828939    36.967045    -44.254963    -22.867783    -4.684810    22.867786    -0.000000    0.000000    -0.000000    -1.774822    17.991875    -0.941161    -1.688008    -0.000000    0.000004    -1.688009    -0.000001    0.000011    -1.688007    0.000001    -0.744762    -1.688010    0.000000    -0.000004    -1.688007    -0.000000    0.000006    -1.688007    -0.000000    0.496516    -1.688010    0.000000    -0.000005    -1.688009    -0.000000    0.000001    -1.774822    -17.991871    0.444661    -1.688008    -0.000002    -0.000002    -1.688010    0.000000    -0.000008    -10.258792    -0.474017    -0.040002    19.457556    -5.818491    5.571999    1.239680    -26.588867    2.767979    -19.641371    -3.949676    -4.527142    -27.828949    36.967037    44.254978    22.867790    -4.684812    -22.867794    -0.000000    0.000000    -0.000000    1.774824    17.991873    0.941151    1.688010    0.000000    0.000006    1.688010    0.000001    0.000002    1.688009    -0.000002    0.744761    1.688009    0.000000    0.000002    1.688009    -0.000000    -0.000006    1.688008    -0.000004    -0.496515    1.688013    0.000002    0.000009    1.688013    -0.000000    -0.000002    1.774823    -17.991877    -0.444645    1.688009    0.000002    0.000004    1.688006    -0.000002    -0.000006    0.902609    0.684142    4.413145    -0.000000    0.281776    0.000000    0.378373    -4.774503    5.033083    -0.000000    1.472461    0.000005    -1.814515    -3.957971    -6.068262    -0.000002    10.540462    0.000013    4.026751    -11.037125    -1.342680    0.000000    0.531924    -0.000015    
